Coordinates
version=1
nRows=11
nColumns=38
inDegrees=no

Units are S.I. units (second, meters, Newtons, ...)
If the header above contains a line with 'inDegrees', this indicates whether rotational values are in degrees (yes) or radians (no).

endheader
time	pelvis_tilt	pelvis_list	pelvis_rotation	pelvis_tx	pelvis_ty	pelvis_tz	hip_flexion_r	hip_adduction_r	hip_rotation_r	knee_angle_r	ankle_angle_r	subtalar_angle_r	mtp_angle_r	hip_flexion_l	hip_adduction_l	hip_rotation_l	knee_angle_l	ankle_angle_l	subtalar_angle_l	mtp_angle_l	lumbar_extension	lumbar_bending	lumbar_rotation	arm_flex_r	arm_add_r	arm_rot_r	elbow_flex_r	pro_sup_r	wrist_flex_r	wrist_dev_r	arm_flex_l	arm_add_l	arm_rot_l	elbow_flex_l	pro_sup_l	wrist_flex_l	wrist_dev_l
1.73333	-0.193907	0.111792	-0.0675166	0.959583	0.936894	-0.314615	0.240165	0.0318676	0.252317	-0.762078	0.444786	-0.0164164	0.00649309	0.949853	0.122917	-0.0777789	-1.99035	0.0870873	-0.0119736	-0.0305468	-0.0371032	-0.117533	0.0296639	-0.331832	-0.410803	0.0841402	1.77587	2.0118	0.0274722	0.00618116	-0.705152	-0.25514	0.00759468	1.77956	2.14899	0.1	-0.0814773
1.74167	-0.191523	0.130135	-0.0500794	0.963183	0.942678	-0.315329	0.159168	-0.00463526	0.225776	-0.688874	0.3757	-0.0164164	0.00649309	0.975588	0.149584	-0.0733489	-1.90891	0.106052	-0.0119736	-0.0305468	-0.0298895	-0.142966	0.0287777	-0.319648	-0.403534	0.0891803	1.80973	2.00119	0.0274722	0.00618116	-0.747353	-0.263535	-0.00358959	1.80288	2.15347	0.1	-0.0814773
1.75	-0.189306	0.149109	-0.0319924	0.967241	0.948676	-0.316341	0.0771037	-0.0407282	0.192768	-0.611777	0.289114	-0.0164164	0.00649309	0.993997	0.178288	-0.0691523	-1.81905	0.124088	-0.0119736	-0.0305468	-0.0224371	-0.168464	0.0287366	-0.313441	-0.39688	0.0925842	1.84413	1.99291	0.0274722	0.00618116	-0.789002	-0.272383	-0.0141559	1.8285	2.1586	0.1	-0.0814773
1.75833	-0.187663	0.168336	-0.0137486	0.971524	0.954653	-0.317675	-0.00370367	-0.0753642	0.155087	-0.534079	0.189619	-0.0164164	0.00649309	1.0062	0.208482	-0.0643268	-1.72177	0.140755	-0.0119736	-0.0305468	-0.0147946	-0.19351	0.030404	-0.31298	-0.391088	0.0942286	1.87892	1.98745	0.0274722	0.00618116	-0.828891	-0.281962	-0.0235795	1.85528	2.16394	0.1	-0.0814773
1.76667	-0.186928	0.187085	0.00407361	0.975795	0.960405	-0.3193	-0.0808855	-0.107193	0.115484	-0.459536	0.0832725	-0.0164164	0.00649309	1.01324	0.239122	-0.0578755	-1.61798	0.15574	-0.0119736	-0.0305468	-0.00698491	-0.217297	0.0345319	-0.317786	-0.386313	0.0940705	1.91384	1.98507	0.0274722	0.00618116	-0.865963	-0.292521	-0.0315456	1.88227	2.16932	0.1	-0.0814773
1.775	-0.187316	0.204281	0.0209064	0.979839	0.965755	-0.321124	-0.152259	-0.134628	0.0774312	-0.392053	-0.0229768	-0.0164164	0.00649309	1.01595	0.268729	-0.0487593	-1.50863	0.168925	-0.0119736	-0.0305468	0.00101368	-0.238732	0.0416064	-0.327156	-0.382625	0.0922092	1.94841	1.98572	0.0274722	0.00618116	-0.899393	-0.304176	-0.0379913	1.90872	2.17489	0.1	-0.0814773
1.78333	-0.188898	0.218637	0.0362553	0.983498	0.970554	-0.323009	-0.216053	-0.156012	0.0446886	-0.335292	-0.122108	-0.0164164	0.00649309	1.01493	0.295545	-0.0360521	-1.39481	0.180427	-0.0119736	-0.0305468	0.00925511	-0.256554	0.0517118	-0.340144	-0.380032	0.0889765	1.98186	1.9891	0.0274722	0.00618116	-0.928637	-0.316791	-0.0431252	1.93398	2.18101	0.1	-0.0814773
1.79167	-0.191579	0.228856	0.0497198	0.986691	0.974677	-0.324782	-0.271043	-0.169867	0.0207083	-0.292327	-0.207963	-0.0164164	0.00649309	1.01057	0.317773	-0.0191247	-1.27783	0.190587	-0.0119736	-0.0305468	0.0177876	-0.269532	0.0644542	-0.355526	-0.378519	0.0850135	2.01309	1.99471	0.0274722	0.00618116	-0.953445	-0.329893	-0.0474136	1.95745	2.1881	0.1	-0.0814773
1.8	-0.195066	0.233873	0.0609946	0.989413	0.978038	-0.32627	-0.316574	-0.175159	0.00795338	-0.265483	-0.27609	-0.0164164	0.00649309	1.00306	0.333839	0.00220173	-1.15929	0.199941	-0.0119736	-0.0305468	0.0265876	-0.276694	0.0789789	-0.371808	-0.378069	0.0812641	2.0407	2.00206	0.0274722	0.00618116	-0.973837	-0.342654	-0.051511	1.97853	2.19641	0.1	-0.0814773
1.80833	-0.198863	0.23307	0.0698563	0.991704	0.980592	-0.327332	-0.352526	-0.171517	0.00729095	-0.256335	-0.324319	-0.0164164	0.00649309	0.992453	0.342665	0.0275803	-1.0411	0.209156	-0.0119736	-0.0305468	0.035425	-0.277515	0.0941145	-0.387404	-0.378646	0.0788007	2.06316	2.01068	0.0274722	0.00618116	-0.989983	-0.354019	-0.0561064	1.99662	2.20583	0.1	-0.0814773
1.81667	-0.202249	0.226381	0.0761726	0.993621	0.982358	-0.327883	-0.379238	-0.159351	0.0176653	-0.265827	-0.352891	-0.0164164	0.00649309	0.97865	0.343859	0.0561574	-0.92554	0.218934	-0.0119736	-0.0305468	0.0436941	-0.272004	0.108701	-0.401042	-0.380119	0.0783983	2.07915	2.02013	0.0274722	0.00618116	-1.00199	-0.363012	-0.061649	2.01121	2.21592	0.1	-0.0814773
